<svg id="Layer_1" data-name="Layer 1" xmlns="http://www.w3.org/2000/svg" xmlns:xlink="http://www.w3.org/1999/xlink" viewBox="0 0 1507.56 1462.75"><defs><style>.cls-1,.cls-2{stroke:#000;stroke-width:0.25px;}.cls-1{fill:url(#linear-gradient);}.cls-2{fill:url(#linear-gradient-2);}</style><linearGradient id="linear-gradient" x1="1697.54" y1="624.81" x2="954.52" y2="1053.79" gradientUnits="userSpaceOnUse"><stop offset="0.17" stop-color="#67bf6f"/><stop offset="1" stop-color="#50bfa2"/></linearGradient><linearGradient id="linear-gradient-2" x1="1387.24" y1="610.84" x2="541.04" y2="1457.04" gradientUnits="userSpaceOnUse"><stop offset="0.27" stop-color="#65bf7b"/><stop offset="0.36" stop-color="#53ad87"/><stop offset="0.52" stop-color="#3a9497"/><stop offset="0.62" stop-color="#318b9d"/><stop offset="0.73" stop-color="#337b99"/><stop offset="0.88" stop-color="#346b95"/><stop offset="0.99" stop-color="#356594"/></linearGradient></defs><path class="cls-1" d="M1091.74,386.69c-135.38,23.15-250.45,86.86-250.45,86.86s-19.6-104-279.22-99.49c0,0,383.12-356.36,861.44-63.62,96.57,59.1,177.24,142.08,232.28,242.36,89.35,162.78,168.72,439.71-21,780.86,0,0,40.41,55,191,55l-39.19,105s-503.56-64.61-592.72-410c0,0,270.58,57.34,335.26-266.12,14.19-71,7.13-144.8-19.2-212.08-.33-.83-.65-1.66-1-2.48a364.75,364.75,0,0,0-84.57-126.64h0a194.69,194.69,0,0,0-25.41-20.92h0C1309,393.27,1199,368.35,1091.74,386.69Z" transform="translate(-318.5 -194.88)"/><path class="cls-2" d="M918.07,579.76s128.11-93.35,265.1-90c99.06,2.44,184.84,69,217.19,164.61,28.43,84,40.57,208.6-95.59,277.63a156.87,156.87,0,0,1-71,16.59H1103.82s-148.13-23.2,25.87,288.84c0,0,148.13,247.23,326.82,276,0,0-413.82,324-839.4,0,0,0-404.72-263.77-271.62-763.69a243.09,243.09,0,0,1,16.94-45.11c37.05-75,165.78-293.13,358-166,44.18,29.23,78.1,72,97.9,121.82,36.2,91.06,84.39,265.84,12.29,435.05a105.62,105.62,0,0,1-45.74,50.69c-45.44,25.39-124.89,48.82-142.21-83.43a140.45,140.45,0,0,1,.22-37.43c6.87-49.37,30.49-190.08,84.33-262a62.67,62.67,0,0,1,5.29-6.1c15.28-15.66,90.91-101.56-28.38-155.92,0,0-209.26,253.17-183.4,472.23,0,0,16.19,180.42,177.56,214.42A183.13,183.13,0,0,0,848,1254.43C936,1187.14,1058.4,1011.18,918.07,579.76Z" transform="translate(-318.5 -194.88)"/></svg>